<mxfile host="app.diagrams.net" modified="2024-07-07T06:30:59.426Z" agent="Mozilla/5.0 (Windows NT 10.0; Win64; x64) AppleWebKit/537.36 (KHTML, like Gecko) Chrome/126.0.0.0 Safari/537.36" etag="UMf2TnFT3ffbenRl-W5Y" version="24.6.4" type="github">
  <diagram name="第 1 页" id="u8sgoynMcfFSkRO0Wisd">
    <mxGraphModel dx="2074" dy="1106" grid="1" gridSize="10" guides="1" tooltips="1" connect="1" arrows="1" fold="1" page="1" pageScale="1" pageWidth="827" pageHeight="1169" math="0" shadow="0">
      <root>
        <mxCell id="0" />
        <mxCell id="1" parent="0" />
        <mxCell id="YMItEIEzRCYyA9LUKuwV-1" value="" style="rounded=0;whiteSpace=wrap;html=1;fillColor=#60a917;strokeColor=#2D7600;fontColor=#ffffff;" vertex="1" parent="1">
          <mxGeometry x="60" y="190" width="120" height="240" as="geometry" />
        </mxCell>
        <mxCell id="YMItEIEzRCYyA9LUKuwV-2" value="" style="rounded=0;whiteSpace=wrap;html=1;fillColor=#b0e3e6;strokeColor=#0e8088;" vertex="1" parent="1">
          <mxGeometry x="190" y="190" width="810" height="90" as="geometry" />
        </mxCell>
        <mxCell id="YMItEIEzRCYyA9LUKuwV-3" value="" style="rounded=0;whiteSpace=wrap;html=1;fillColor=#6d8764;fontColor=#ffffff;strokeColor=#3A5431;" vertex="1" parent="1">
          <mxGeometry x="190" y="290" width="810" height="160" as="geometry" />
        </mxCell>
        <mxCell id="YMItEIEzRCYyA9LUKuwV-6" value="" style="rounded=0;whiteSpace=wrap;html=1;fillColor=#647687;fontColor=#ffffff;strokeColor=#314354;" vertex="1" parent="1">
          <mxGeometry x="190" y="460" width="810" height="90" as="geometry" />
        </mxCell>
        <mxCell id="YMItEIEzRCYyA9LUKuwV-7" value="" style="rounded=0;whiteSpace=wrap;html=1;fillColor=#76608a;fontColor=#ffffff;strokeColor=#432D57;" vertex="1" parent="1">
          <mxGeometry x="190" y="560" width="810" height="90" as="geometry" />
        </mxCell>
        <mxCell id="YMItEIEzRCYyA9LUKuwV-9" value="" style="rounded=0;whiteSpace=wrap;html=1;fillColor=#008a00;fontColor=#ffffff;strokeColor=#005700;" vertex="1" parent="1">
          <mxGeometry x="60" y="440" width="120" height="210" as="geometry" />
        </mxCell>
        <mxCell id="YMItEIEzRCYyA9LUKuwV-10" value="" style="rounded=0;whiteSpace=wrap;html=1;fillColor=#b1ddf0;strokeColor=#10739e;" vertex="1" parent="1">
          <mxGeometry x="1010" y="190" width="120" height="240" as="geometry" />
        </mxCell>
        <mxCell id="YMItEIEzRCYyA9LUKuwV-11" value="" style="rounded=0;whiteSpace=wrap;html=1;fillColor=#d0cee2;strokeColor=#56517e;" vertex="1" parent="1">
          <mxGeometry x="1010" y="440" width="120" height="210" as="geometry" />
        </mxCell>
        <mxCell id="YMItEIEzRCYyA9LUKuwV-12" value="服务框架" style="text;html=1;align=center;verticalAlign=middle;whiteSpace=wrap;rounded=0;fontFamily=Helvetica;fontSize=17;fontStyle=1" vertex="1" parent="1">
          <mxGeometry x="85" y="200" width="70" height="30" as="geometry" />
        </mxCell>
        <mxCell id="YMItEIEzRCYyA9LUKuwV-13" value="开发框架" style="text;html=1;align=center;verticalAlign=middle;whiteSpace=wrap;rounded=0;fontFamily=Helvetica;fontSize=17;fontStyle=1" vertex="1" parent="1">
          <mxGeometry x="85" y="450" width="70" height="30" as="geometry" />
        </mxCell>
        <mxCell id="YMItEIEzRCYyA9LUKuwV-14" value="稳定性" style="text;html=1;align=center;verticalAlign=middle;whiteSpace=wrap;rounded=0;fontFamily=Helvetica;fontSize=17;fontStyle=1" vertex="1" parent="1">
          <mxGeometry x="1035" y="200" width="70" height="30" as="geometry" />
        </mxCell>
        <mxCell id="YMItEIEzRCYyA9LUKuwV-15" value="工程化" style="text;html=1;align=center;verticalAlign=middle;whiteSpace=wrap;rounded=0;fontFamily=Helvetica;fontSize=17;fontStyle=1" vertex="1" parent="1">
          <mxGeometry x="1035" y="450" width="70" height="30" as="geometry" />
        </mxCell>
        <mxCell id="YMItEIEzRCYyA9LUKuwV-16" value="业务前台" style="text;html=1;align=center;verticalAlign=middle;whiteSpace=wrap;rounded=0;fontFamily=Helvetica;fontSize=17;fontStyle=1" vertex="1" parent="1">
          <mxGeometry x="210" y="200" width="70" height="30" as="geometry" />
        </mxCell>
        <mxCell id="YMItEIEzRCYyA9LUKuwV-17" value="业务中台" style="text;html=1;align=center;verticalAlign=middle;whiteSpace=wrap;rounded=0;fontFamily=Helvetica;fontSize=17;fontStyle=1" vertex="1" parent="1">
          <mxGeometry x="210" y="300" width="70" height="30" as="geometry" />
        </mxCell>
        <mxCell id="YMItEIEzRCYyA9LUKuwV-18" value="基础服务" style="text;html=1;align=center;verticalAlign=middle;whiteSpace=wrap;rounded=0;fontFamily=Helvetica;fontSize=17;fontStyle=1" vertex="1" parent="1">
          <mxGeometry x="210" y="470" width="70" height="30" as="geometry" />
        </mxCell>
        <mxCell id="YMItEIEzRCYyA9LUKuwV-19" value="存储" style="text;html=1;align=center;verticalAlign=middle;whiteSpace=wrap;rounded=0;fontFamily=Helvetica;fontSize=17;fontStyle=1" vertex="1" parent="1">
          <mxGeometry x="210" y="570" width="70" height="30" as="geometry" />
        </mxCell>
        <mxCell id="YMItEIEzRCYyA9LUKuwV-20" value="&lt;b&gt;&lt;font style=&quot;font-size: 18px;&quot;&gt;注册/发现&lt;/font&gt;&lt;/b&gt;" style="rounded=1;whiteSpace=wrap;html=1;fillColor=#dae8fc;strokeColor=#6c8ebf;" vertex="1" parent="1">
          <mxGeometry x="70" y="250" width="100" height="30" as="geometry" />
        </mxCell>
        <mxCell id="YMItEIEzRCYyA9LUKuwV-21" value="&lt;b&gt;&lt;font style=&quot;font-size: 18px;&quot;&gt;API网关&lt;/font&gt;&lt;/b&gt;" style="rounded=1;whiteSpace=wrap;html=1;fillColor=#dae8fc;strokeColor=#6c8ebf;" vertex="1" parent="1">
          <mxGeometry x="70" y="290" width="100" height="30" as="geometry" />
        </mxCell>
        <mxCell id="YMItEIEzRCYyA9LUKuwV-22" value="&lt;b&gt;&lt;font style=&quot;font-size: 18px;&quot;&gt;熔断/降级&lt;/font&gt;&lt;/b&gt;" style="rounded=1;whiteSpace=wrap;html=1;fillColor=#dae8fc;strokeColor=#6c8ebf;" vertex="1" parent="1">
          <mxGeometry x="70" y="330" width="100" height="30" as="geometry" />
        </mxCell>
        <mxCell id="YMItEIEzRCYyA9LUKuwV-23" value="&lt;b&gt;&lt;font style=&quot;font-size: 18px;&quot;&gt;服务治理&lt;/font&gt;&lt;/b&gt;" style="rounded=1;whiteSpace=wrap;html=1;fillColor=#dae8fc;strokeColor=#6c8ebf;" vertex="1" parent="1">
          <mxGeometry x="70" y="370" width="100" height="30" as="geometry" />
        </mxCell>
        <mxCell id="YMItEIEzRCYyA9LUKuwV-25" value="&lt;b&gt;&lt;font style=&quot;font-size: 18px;&quot;&gt;微服务框架&lt;/font&gt;&lt;/b&gt;" style="rounded=1;whiteSpace=wrap;html=1;fillColor=#dae8fc;strokeColor=#6c8ebf;" vertex="1" parent="1">
          <mxGeometry x="70" y="500" width="100" height="30" as="geometry" />
        </mxCell>
        <mxCell id="YMItEIEzRCYyA9LUKuwV-26" value="&lt;b&gt;&lt;font style=&quot;font-size: 18px;&quot;&gt;APP框架&lt;/font&gt;&lt;/b&gt;" style="rounded=1;whiteSpace=wrap;html=1;fillColor=#dae8fc;strokeColor=#6c8ebf;" vertex="1" parent="1">
          <mxGeometry x="70" y="540" width="100" height="30" as="geometry" />
        </mxCell>
        <mxCell id="YMItEIEzRCYyA9LUKuwV-27" value="&lt;b&gt;&lt;font style=&quot;font-size: 18px;&quot;&gt;前端框架&lt;/font&gt;&lt;/b&gt;" style="rounded=1;whiteSpace=wrap;html=1;fillColor=#dae8fc;strokeColor=#6c8ebf;" vertex="1" parent="1">
          <mxGeometry x="70" y="580" width="100" height="30" as="geometry" />
        </mxCell>
        <mxCell id="YMItEIEzRCYyA9LUKuwV-28" value="&lt;b&gt;&lt;font style=&quot;font-size: 18px;&quot;&gt;渠道商端&lt;/font&gt;&lt;/b&gt;" style="rounded=1;whiteSpace=wrap;html=1;fillColor=#dae8fc;strokeColor=#6c8ebf;" vertex="1" parent="1">
          <mxGeometry x="290" y="230" width="100" height="30" as="geometry" />
        </mxCell>
        <mxCell id="YMItEIEzRCYyA9LUKuwV-29" value="&lt;b&gt;&lt;font style=&quot;font-size: 18px;&quot;&gt;平台端&lt;/font&gt;&lt;/b&gt;" style="rounded=1;whiteSpace=wrap;html=1;fillColor=#dae8fc;strokeColor=#6c8ebf;" vertex="1" parent="1">
          <mxGeometry x="430" y="230" width="100" height="30" as="geometry" />
        </mxCell>
        <mxCell id="YMItEIEzRCYyA9LUKuwV-30" value="&lt;b&gt;&lt;font style=&quot;font-size: 18px;&quot;&gt;供应商端&lt;/font&gt;&lt;/b&gt;" style="rounded=1;whiteSpace=wrap;html=1;fillColor=#dae8fc;strokeColor=#6c8ebf;" vertex="1" parent="1">
          <mxGeometry x="580" y="230" width="100" height="30" as="geometry" />
        </mxCell>
        <mxCell id="YMItEIEzRCYyA9LUKuwV-31" value="&lt;b&gt;&lt;font style=&quot;font-size: 18px;&quot;&gt;司机端&lt;/font&gt;&lt;/b&gt;" style="rounded=1;whiteSpace=wrap;html=1;fillColor=#dae8fc;strokeColor=#6c8ebf;" vertex="1" parent="1">
          <mxGeometry x="727" y="230" width="100" height="30" as="geometry" />
        </mxCell>
        <mxCell id="YMItEIEzRCYyA9LUKuwV-32" value="&lt;b&gt;&lt;font style=&quot;font-size: 18px;&quot;&gt;OPENAPI&lt;/font&gt;&lt;/b&gt;" style="rounded=1;whiteSpace=wrap;html=1;fillColor=#dae8fc;strokeColor=#6c8ebf;" vertex="1" parent="1">
          <mxGeometry x="870" y="230" width="100" height="30" as="geometry" />
        </mxCell>
        <mxCell id="YMItEIEzRCYyA9LUKuwV-33" value="&lt;span style=&quot;font-size: 18px;&quot;&gt;&lt;b&gt;渠道商管理&lt;/b&gt;&lt;/span&gt;" style="rounded=1;whiteSpace=wrap;html=1;fillColor=#dae8fc;strokeColor=#6c8ebf;align=center;horizontal=1;verticalAlign=top;" vertex="1" parent="1">
          <mxGeometry x="290" y="330" width="100" height="100" as="geometry" />
        </mxCell>
        <mxCell id="YMItEIEzRCYyA9LUKuwV-34" value="&lt;span style=&quot;font-size: 18px;&quot;&gt;&lt;b&gt;商品管理&lt;/b&gt;&lt;/span&gt;" style="rounded=1;whiteSpace=wrap;html=1;fillColor=#dae8fc;strokeColor=#6c8ebf;align=center;horizontal=1;verticalAlign=top;" vertex="1" parent="1">
          <mxGeometry x="410" y="330" width="100" height="100" as="geometry" />
        </mxCell>
        <mxCell id="YMItEIEzRCYyA9LUKuwV-35" value="&lt;span style=&quot;font-size: 18px;&quot;&gt;&lt;b&gt;基础数据管理&lt;/b&gt;&lt;/span&gt;" style="rounded=1;whiteSpace=wrap;html=1;fillColor=#dae8fc;strokeColor=#6c8ebf;align=center;horizontal=1;verticalAlign=top;" vertex="1" parent="1">
          <mxGeometry x="530" y="330" width="100" height="100" as="geometry" />
        </mxCell>
        <mxCell id="YMItEIEzRCYyA9LUKuwV-36" value="&lt;span style=&quot;font-size: 18px;&quot;&gt;&lt;b&gt;供应商管理&lt;/b&gt;&lt;/span&gt;" style="rounded=1;whiteSpace=wrap;html=1;fillColor=#dae8fc;strokeColor=#6c8ebf;align=center;horizontal=1;verticalAlign=top;" vertex="1" parent="1">
          <mxGeometry x="650" y="330" width="100" height="100" as="geometry" />
        </mxCell>
        <mxCell id="YMItEIEzRCYyA9LUKuwV-37" value="&lt;span style=&quot;font-size: 18px;&quot;&gt;&lt;b&gt;司机管理&lt;/b&gt;&lt;/span&gt;" style="rounded=1;whiteSpace=wrap;html=1;fillColor=#dae8fc;strokeColor=#6c8ebf;align=center;horizontal=1;verticalAlign=top;" vertex="1" parent="1">
          <mxGeometry x="770" y="330" width="100" height="100" as="geometry" />
        </mxCell>
        <mxCell id="YMItEIEzRCYyA9LUKuwV-38" value="&lt;span style=&quot;font-size: 18px;&quot;&gt;&lt;b&gt;订单管理&lt;/b&gt;&lt;/span&gt;" style="rounded=1;whiteSpace=wrap;html=1;fillColor=#dae8fc;strokeColor=#6c8ebf;align=center;horizontal=1;verticalAlign=top;" vertex="1" parent="1">
          <mxGeometry x="890" y="330" width="100" height="100" as="geometry" />
        </mxCell>
        <mxCell id="YMItEIEzRCYyA9LUKuwV-39" value="&lt;b&gt;&lt;font style=&quot;font-size: 18px;&quot;&gt;账号/权限&lt;/font&gt;&lt;/b&gt;" style="rounded=1;whiteSpace=wrap;html=1;fillColor=#dae8fc;strokeColor=#6c8ebf;" vertex="1" parent="1">
          <mxGeometry x="290" y="500" width="100" height="30" as="geometry" />
        </mxCell>
        <mxCell id="YMItEIEzRCYyA9LUKuwV-40" value="&lt;b&gt;&lt;font style=&quot;font-size: 18px;&quot;&gt;邮箱/短信&lt;/font&gt;&lt;/b&gt;" style="rounded=1;whiteSpace=wrap;html=1;fillColor=#dae8fc;strokeColor=#6c8ebf;" vertex="1" parent="1">
          <mxGeometry x="400" y="500" width="100" height="30" as="geometry" />
        </mxCell>
        <mxCell id="YMItEIEzRCYyA9LUKuwV-41" value="&lt;b&gt;&lt;font style=&quot;font-size: 18px;&quot;&gt;文件存储&lt;/font&gt;&lt;/b&gt;" style="rounded=1;whiteSpace=wrap;html=1;fillColor=#dae8fc;strokeColor=#6c8ebf;" vertex="1" parent="1">
          <mxGeometry x="510" y="500" width="100" height="30" as="geometry" />
        </mxCell>
        <mxCell id="YMItEIEzRCYyA9LUKuwV-42" value="&lt;b&gt;&lt;font style=&quot;font-size: 18px;&quot;&gt;配置管理&lt;/font&gt;&lt;/b&gt;" style="rounded=1;whiteSpace=wrap;html=1;fillColor=#dae8fc;strokeColor=#6c8ebf;" vertex="1" parent="1">
          <mxGeometry x="627" y="500" width="100" height="30" as="geometry" />
        </mxCell>
      </root>
    </mxGraphModel>
  </diagram>
</mxfile>
